:FULLY-SPECIFIED
:FORCE-ALL-JOINTS-BE-3DOF
:DEGREES
1325
root -1.75275 14.4502 8.17207 351.846 32.1601 363.259
lfemur 2.09833 -2.4267 -16.3638
ltibia 57.8326 0 0
lfoot -30.0191 29.2839 0
ltoes -18.53 0 0
rfemur -44.9595 -6.13352 0.834729
rtibia 51.4477 0 0
rfoot 11.561 4.75467 0
rtoes -4.24798 0 0
lowerback 13.8418 0.429093 -13.0701
upperback -1.31861 -1.66045 -0.28836
thorax -8.94001 -0.155813 7.43607
lowerneck -0.617984 -10.9913 -11.693
upperneck 9.82999 -15.4783 10.8273
head 4.80148 -7.64342 4.31606
lclavicle -1.03533e-15 1.65654e-15 0
lhumerus -58.2327 -16.648 96.7274
lradius 96.9547 0 0
lwrist 46.5307 0 0
lhand -18.4249 44.3661 0
lfingers 7.12502 0 0
lthumb 12.5395 -300.322 0
rclavicle 5.74985e-14 3.89618e-14 0
rhumerus 41.6032 4.04906 -48.8644
rradius 85.7853 0 0
rwrist 27.3474 0 0
rhand -24.7965 -28.3801 0
rfingers 7.12502 0 0
rthumb -11.6864 -70.4291 0
1326
root -1.85616 14.3247 8.39616 350.693 34.1457 363.342
lfemur 3.40876 -2.93046 -15.8875
ltibia 57.5196 0 0
lfoot -29.8407 29.6993 0
ltoes -18.1504 0 0
rfemur -45.3732 -6.72463 1.1578
rtibia 50.3991 0 0
rfoot 12.2067 5.23622 0
rtoes -4.50311 0 0
lowerback 16.8339 0.55452 -13.755
upperback -1.13284 -2.09608 -0.45524
thorax -10.346 -0.231402 7.83259
lowerneck -0.127438 -11.3868 -11.8384
upperneck 8.79124 -16.0436 11.4347
head 4.53092 -7.9304 4.51727
lclavicle -1.60425e-15 1.45361e-15 0
lhumerus -62.4755 -15.545 97.3652
lradius 97.1537 0 0
lwrist 47.6136 0 0
lhand -18.2329 44.1542 0
lfingers 7.12502 0 0
lthumb 12.5128 -299.764 0
rclavicle 5.21621e-14 3.70875e-14 0
rhumerus 43.7315 2.45664 -47.0456
rradius 85.3323 0 0
rwrist 31.7255 0 0
rhand -25.7947 -28.6067 0
rfingers 7.12502 0 0
rthumb -11.8613 -70.1102 0
1327
root -1.87376 14.243 8.65248 351.936 33.8852 364.042
lfemur 4.71919 -3.43421 -15.4111
ltibia 57.2065 0 0
lfoot -29.6624 30.1147 0
ltoes -17.7707 0 0
rfemur -45.7869 -7.31575 1.48086
rtibia 49.3506 0 0
rfoot 12.8525 5.71778 0
rtoes -4.75825 0 0
lowerback 16.062 0.828815 -14.3709
upperback -1.32181 -1.77164 -0.752711
thorax -10.1964 -0.0560566 7.74248
lowerneck 0.344053 -11.6521 -11.9069
upperneck 7.92886 -16.4117 11.7802
head 4.27042 -8.12855 4.64439
lclavicle -2.17317e-15 1.25069e-15 0
lhumerus -66.7183 -14.4421 98.003
lradius 97.3527 0 0
lwrist 48.6966 0 0
lhand -18.041 43.9423 0
lfingers 7.12502 0 0
lthumb 12.4862 -299.207 0
rclavicle 4.68257e-14 3.52133e-14 0
rhumerus 45.8598 0.864228 -45.2267
rradius 84.8793 0 0
rwrist 31.6569 0 0
rhand -26.7929 -28.8333 0
rfingers 7.12502 0 0
rthumb -12.0363 -69.7913 0
1328
root -1.87162 14.1918 8.90018 353.308 33.0778 364.356
lfemur 5.16076 -3.35457 -15.2481
ltibia 56.8935 0 0
lfoot -29.484 30.5302 0
ltoes -17.3911 0 0
rfemur -46.2006 -7.90686 1.80393
rtibia 48.302 0 0
rfoot 13.4983 6.19933 0
rtoes -5.01338 0 0
lowerback 14.5887 1.10008 -14.4824
upperback -1.59671 -1.22435 -0.987983
thorax -9.79573 0.18356 7.37849
lowerneck 0.782239 -11.8109 -11.8269
upperneck 7.47864 -16.6357 11.8229
head 4.08644 -8.2567 4.66403
lclavicle -2.74208e-15 1.04776e-15 0
lhumerus -70.9612 -13.3392 98.6409
lradius 97.5516 0 0
lwrist 49.7795 0 0
lhand -17.849 43.7304 0
lfingers 7.12502 0 0
lthumb 12.4596 -298.649 0
rclavicle 4.14892e-14 3.3339e-14 0
rhumerus 47.9881 -0.728188 -43.4079
rradius 84.4263 0 0
rwrist 31.5882 0 0
rhand -27.7912 -29.0599 0
rfingers 7.12502 0 0
rthumb -12.2112 -69.4724 0
1329
root -1.86577 14.2029 9.11508 354.519 31.8263 364.2
lfemur 5.60233 -3.27492 -15.0851
ltibia 56.5804 0 0
lfoot -29.3057 30.9456 0
ltoes -17.0115 0 0
rfemur -46.6142 -8.49798 2.127
rtibia 47.2535 0 0
rfoot 12.8813 6.24622 0
rtoes -5.26852 0 0
lowerback 13.2781 1.43225 -14.0079
upperback -1.9627 -0.520957 -1.1195
thorax -9.61503 0.491432 6.79182
lowerneck 0.982217 -11.9951 -11.4784
upperneck 7.35023 -16.8509 11.3445
head 3.97017 -8.37639 4.47014
lclavicle -3.311e-15 8.44835e-16 0
lhumerus -75.204 -12.2362 99.2787
lradius 97.7506 0 0
lwrist 50.8625 0 0
lhand -17.657 43.5185 0
lfingers 7.12502 0 0
lthumb 12.433 -298.091 0
rclavicle 3.61528e-14 3.14648e-14 0
rhumerus 50.1164 -2.3206 -41.589
rradius 83.9733 0 0
rwrist 31.5196 0 0
rhand -28.7894 -29.2865 0
rfingers 7.12502 0 0
rthumb -12.3861 -69.1535 0
1330
root -1.84394 14.1483 9.31333 354.805 29.8074 363.95
lfemur 6.0439 -3.19528 -14.9221
ltibia 56.2674 0 0
lfoot -29.1273 31.361 0
ltoes -16.6318 0 0
rfemur -47.0279 -9.08909 2.45007
rtibia 46.2049 0 0
rfoot 12.2643 6.2931 0
rtoes -5.52365 0 0
lowerback 12.5842 2.1034 -13.1569
upperback -2.04484 0.607542 -1.2329
thorax -9.53186 0.977159 5.94627
lowerneck 1.23702 -12.0384 -11.3764
upperneck 7.05788 -16.8905 11.1599
head 3.82049 -8.41063 4.42291
lclavicle -3.87992e-15 6.41909e-16 0
lhumerus -79.4468 -11.1333 99.9165
lradius 97.9496 0 0
lwrist 51.9455 0 0
lhand -17.465 43.3067 0
lfingers 7.12502 0 0
lthumb 12.4064 -297.534 0
rclavicle 3.08164e-14 2.95905e-14 0
rhumerus 52.2447 -3.91302 -39.7702
rradius 83.5204 0 0
rwrist 31.4509 0 0
rhand -29.7876 -29.5131 0
rfingers 7.12502 0 0
rthumb -12.5611 -68.8345 0
1331
root -1.83959 14.0857 9.45963 355.686 28.9535 364.103
lfemur 6.48547 -3.11563 -14.7591
ltibia 55.9544 0 0
lfoot -28.949 31.7765 0
ltoes -16.2522 0 0
rfemur -47.4416 -9.68021 2.77313
rtibia 45.1564 0 0
rfoot 11.6473 6.33999 0
rtoes -5.77879 0 0
lowerback 12.1 2.33911 -12.6599
upperback -2.15329 1.05997 -1.31449
thorax -9.44545 1.16323 5.48597
lowerneck 0.976402 -12.0133 -11.3387
upperneck 7.08107 -16.7891 10.6968
head 3.81556 -8.36324 4.27174
lclavicle -4.44883e-15 4.38982e-16 0
lhumerus -79.2084 -11.3288 100.055
lradius 98.1486 0 0
lwrist 53.0284 0 0
lhand -17.273 43.0948 0
lfingers 7.12502 0 0
lthumb 12.3797 -296.976 0
rclavicle 2.548e-14 2.77163e-14 0
rhumerus 54.373 -5.50544 -37.9513
rradius 83.0674 0 0
rwrist 31.3823 0 0
rhand -30.7859 -29.7397 0
rfingers 7.12502 0 0
rthumb -12.736 -68.5156 0
1332
root -1.83115 14.0232 9.60085 355.872 27.7 364.145
lfemur 6.92704 -3.03599 -14.5961
ltibia 55.6413 0 0
lfoot -28.7706 32.1919 0
ltoes -15.8726 0 0
rfemur -47.8553 -10.2713 3.0962
rtibia 45.9405 0 0
rfoot 11.0303 6.38687 0
rtoes -6.03392 0 0
lowerback 12.0785 2.78001 -12.0914
upperback -2.0569 1.74427 -1.32269
thorax -9.43104 1.45425 5.01603
lowerneck 0.987933 -12.0345 -11.3222
upperneck 6.68299 -16.7593 10.4027
head 3.6639 -8.35956 4.19732
lclavicle -5.01775e-15 2.36056e-16 0
lhumerus -78.97 -11.5243 100.194
lradius 98.3475 0 0
lwrist 54.1114 0 0
lhand -17.081 42.8829 0
lfingers 7.12502 0 0
lthumb 12.3531 -296.418 0
rclavicle 2.01435e-14 2.5842e-14 0
rhumerus 56.5012 -7.09785 -36.1325
rradius 82.6144 0 0
rwrist 31.3137 0 0
rhand -31.7841 -29.9663 0
rfingers 7.12502 0 0
rthumb -12.9109 -68.1967 0
1333
root -1.83785 13.9645 9.74347 356.473 26.8007 364.407
lfemur 7.36861 -2.95634 -14.4331
ltibia 55.3283 0 0
lfoot -28.5923 32.6073 0
ltoes -15.4929 0 0
rfemur -48.2689 -10.8624 3.41927
rtibia 46.7246 0 0
rfoot 10.4133 6.43376 0
rtoes -5.97163 0 0
lowerback 11.7846 3.07012 -12.12
upperback -2.10295 2.1703 -1.27399
thorax -9.39409 1.66136 5.00042
lowerneck 1.45234 -11.9789 -11.5653
upperneck 5.99653 -16.6835 10.5317
head 3.40504 -8.34381 4.32565
lclavicle -5.58667e-15 3.313e-17 0
lhumerus -78.7317 -11.7198 100.332
lradius 98.5465 0 0
lwrist 55.1943 0 0
lhand -16.889 42.671 0
lfingers 7.12502 0 0
lthumb 12.3265 -295.861 0
rclavicle 1.48071e-14 2.39678e-14 0
rhumerus 58.6295 -8.69027 -34.3136
rradius 82.5665 0 0
rwrist 31.245 0 0
rhand -32.7823 -30.1929 0
rfingers 7.12502 0 0
rthumb -13.0859 -67.8778 0
1334
root -1.85294 13.9271 9.87981 356.55 26.3118 364.676
lfemur 7.81018 -2.8767 -14.2701
ltibia 55.0152 0 0
lfoot -28.4139 33.0227 0
ltoes -15.1133 0 0
rfemur -48.6826 -11.4536 3.74234
rtibia 47.5087 0 0
rfoot 9.7963 6.48065 0
rtoes -5.90933 0 0
lowerback 12.1341 3.32847 -12.2429
upperback -2.0278 2.4534 -1.21224
thorax -9.57643 1.81068 5.06425
lowerneck 1.59792 -11.9693 -11.7169
upperneck 5.88495 -16.6762 10.5607
head 3.36227 -8.34762 4.36852
lclavicle -6.15558e-15 -1.69796e-16 0
lhumerus -78.4933 -11.9153 100.471
lradius 98.7455 0 0
lwrist 56.2773 0 0
lhand -16.697 42.4591 0
lfingers 7.12502 0 0
lthumb 12.2999 -295.303 0
rclavicle 9.47069e-15 2.20935e-14 0
rhumerus 60.7578 -10.2827 -32.4948
rradius 82.5186 0 0
rwrist 31.1764 0 0
rhand -33.7806 -30.4195 0
rfingers 7.12502 0 0
rthumb -13.2608 -67.5589 0
1335
root -1.87401 13.9151 10.0157 356.731 26.2756 365.032
lfemur 8.25175 -2.79706 -14.1071
ltibia 54.7022 0 0
lfoot -28.2356 33.4382 0
ltoes -14.7337 0 0
rfemur -49.0963 -12.0447 4.0654
rtibia 48.2928 0 0
rfoot 9.1793 6.52753 0
rtoes -5.84704 0 0
lowerback 12.5398 3.44302 -12.5407
upperback -2.01288 2.50073 -1.18041
thorax -9.82496 1.86186 5.23928
lowerneck 1.51939 -11.9956 -11.7438
upperneck 6.15134 -16.7179 10.512
head 3.45782 -8.36533 4.34152
lclavicle -6.7245e-15 -3.72723e-16 0
lhumerus -78.2549 -12.1107 100.61
lradius 98.9444 0 0
lwrist 57.3602 0 0
lhand -16.505 42.2472 0
lfingers 7.12502 0 0
lthumb 12.2733 -294.746 0
rclavicle 4.13426e-15 2.02192e-14 0
rhumerus 62.8861 -11.8751 -30.6759
rradius 82.4707 0 0
rwrist 31.1077 0 0
rhand -34.7788 -30.6461 0
rfingers 7.12502 0 0
rthumb -13.4357 -67.24 0
